<svg id="Layer_1" data-name="Layer 1" xmlns="http://www.w3.org/2000/svg" xmlns:xlink="http://www.w3.org/1999/xlink" viewBox="0 0 240 112"><defs><style>.cls-1{fill:none;}.cls-2{clip-path:url(#clip-path);}.cls-3{fill:#fff;}.cls-4{fill:#73bdfe;}.cls-5{fill:#ff665e;}</style><clipPath id="clip-path"><rect class="cls-1" width="240" height="112"/></clipPath></defs><title>scout-header-logo</title><g class="cls-2"><path class="cls-3" d="M139.48452,59.26648a4.5152,4.5152,0,0,1-4.71521,3.8248c-2.97079,0-5.236-2.3016-5.236-6.0144,0-3.6764,2.26521-5.978,5.2724-5.978a4.23569,4.23569,0,0,1,4.4548,3.8248l3.71-.7644c-.7532-3.9844-3.86119-6.2888-8.092-6.2888a8.78927,8.78927,0,0,0-9.13081,9.2064c0,5.4572,3.6736,9.2428,9.0216,9.2428,4.2728,0,7.55161-2.3436,8.2852-6.3168Zm-23.7608-7.9072-2.45-.5572c-4.0096-.854-5.236-1.9292-5.236-3.8612,0-2.3744,1.932-4.0096,5.08759-4.0096,2.93161,0,4.9,1.4112,5.3088,4.494l3.88081-.8008c-.672-4.494-4.09641-7.182-9.1168-7.182-5.34521,0-9.058,3.192-9.058,7.686,0,3.4888,2.26521,5.866,7.05321,6.9048l2.4136.518c4.00959.8932,5.236,2.0804,5.236,4.0096,0,2.4892-2.0804,4.27-5.3088,4.27-3.19479,0-5.45719-1.7444-5.754-5.1968l-3.92.8064c.49839,4.9028,4.2756,7.8792,9.5256,7.8792,5.5664,0,9.3912-3.304,9.3912-8.092,0-3.528-2.0776-5.7904-7.0532-6.8684m82.2304,11.62v3.0828a10.16449,10.16449,0,0,1-2.45.2576c-4.19441,0-6.23562-1.8928-6.23562-6.6444v-8.1676h-3.08279v-3.192h3.08279v-4.382l3.71-.7616v5.1436h4.82719v3.192h-4.82719v8.0556c0,2.7496.9296,3.5644,3.3432,3.5644a7.97816,7.97816,0,0,0,1.6324-.1484m-14.7392-14.6636v17.5588h-3.34041l-.2212-2.3016h-.112a6.57966,6.57966,0,0,1-5.56919,2.7468c-3.60081,0-6.1628-2.45-6.1628-6.9412V48.31568h3.7128v9.7272c0,3.6372,1.33559,4.9364,3.6008,4.9364,2.59839,0,4.382-1.6688,4.382-5.1604v-9.5032Zm-23.08881,8.7612c0-3.6008-2.22879-5.978-5.3088-5.978-3.08279,0-5.3116,2.3772-5.3116,5.978,0,3.6372,2.22881,6.0144,5.3116,6.0144,3.08,0,5.3088-2.3772,5.3088-6.0144m-14.406,0a9.09646,9.09646,0,1,1,18.19159,0,9.097,9.097,0,1,1-18.19159,0"/><path class="cls-4" d="M58.424,30.80112a26.229,26.229,0,0,0-6.3056,26.95l16.0972-3.3096Zm11.1216,26.8492,7.434,17.9508a26.15945,26.15945,0,0,1-18.5556-7.6888c-.546-.546-1.064-1.1172-1.5624-1.7108Z"/><path class="cls-5" d="M76.98124,52.63636l-8.764,1.8032,1.3272,3.2116Zm-24.864,5.1156a26.16256,26.16256,0,0,0,4.746,8.4504l-10.9144,7.3584a39.2038,39.2038,0,0,1-6.748-13.1516Z"/><path class="cls-3" d="M69.54556,57.65032l-12.684,8.5512a26.20731,26.20731,0,0,1-4.7432-8.4504l16.0972-3.3096Z"/></g></svg>